# xmcd
#
# Track frame offsets:
#	150
#	17397
#	32197
#	49842
#	64697
#	77615
#	95742
#	109000
#	124962
#	141972
#
# Disc length: 2069 seconds
#
# Revision: 4
# Processed by: cddbd v1.4PL0 Copyright (c) Steve Scherf et al.
# Submitted via: audiograbber 1.80
#
DISCID=8308130a
DTITLE=Crystal Gayle - These Days
DYEAR=1900
DGENRE=
TTITLE0=Too Many Lovers
TTITLE1=If You Ever Change Your Mind
TTITLE2=Ain't No Love In The Heart Of The City
TTITLE3=Same Old Story (Same Old Song)
TTITLE4=Help Yourselves To Each Other
TTITLE5=Take It Easy
TTITLE6=I Just Can't Leave Your Love Alone
TTITLE7=You've Almost Got Me Believin'
TTITLE8=Lover Man aka Trouble Man
TTITLE9=What A Little Moonlight Can Do
EXTD=
EXTT0=
EXTT1=
EXTT2=
EXTT3=
EXTT4=
EXTT5=
EXTT6=
EXTT7=
EXTT8=
EXTT9=
PLAYORDER=
